<?xml version="1.0" encoding="utf-8"?>
<!-- Generator: Adobe Illustrator 25.1.0, SVG Export Plug-In . SVG Version: 6.00 Build 0)  -->
<svg version="1.1" id="Capa_1" xmlns="http://www.w3.org/2000/svg" xmlns:xlink="http://www.w3.org/1999/xlink" x="0px" y="0px"
	 viewBox="0 0 113.58 35.08" style="enable-background:new 0 0 113.58 35.08;" xml:space="preserve">
<g>
	<path d="M15.56,23.79c-0.67,0.34-2.02,0.67-3.74,0.67c-3.99,0-6.99-2.52-6.99-7.16c0-4.43,3-7.43,7.39-7.43
		c1.76,0,2.88,0.38,3.36,0.63l-0.44,1.49c-0.69-0.34-1.68-0.59-2.86-0.59c-3.32,0-5.52,2.12-5.52,5.84c0,3.46,1.99,5.69,5.44,5.69
		c1.11,0,2.25-0.23,2.98-0.59L15.56,23.79z"/>
	<path d="M23.27,24.25l-0.15-1.28h-0.06c-0.57,0.8-1.66,1.51-3.11,1.51c-2.06,0-3.11-1.45-3.11-2.92c0-2.46,2.18-3.8,6.11-3.78
		v-0.21c0-0.84-0.23-2.35-2.31-2.35c-0.94,0-1.93,0.29-2.65,0.76l-0.42-1.22c0.84-0.55,2.06-0.9,3.34-0.9
		c3.11,0,3.86,2.12,3.86,4.16v3.8c0,0.88,0.04,1.74,0.17,2.44H23.27z M22.99,19.06c-2.02-0.04-4.3,0.31-4.3,2.29
		c0,1.2,0.8,1.76,1.74,1.76c1.32,0,2.16-0.84,2.46-1.7c0.06-0.19,0.1-0.4,0.1-0.59V19.06z"/>
	<path d="M27.76,17.26c0-1.2-0.02-2.23-0.08-3.17h1.62l0.06,1.99h0.08c0.46-1.36,1.57-2.23,2.81-2.23c0.21,0,0.36,0.02,0.52,0.06
		v1.74c-0.19-0.04-0.38-0.06-0.63-0.06c-1.3,0-2.23,0.99-2.48,2.37c-0.04,0.25-0.08,0.55-0.08,0.86v5.42h-1.83V17.26z"/>
	<path d="M34.71,17.4c0-1.3-0.04-2.35-0.08-3.32h1.66l0.08,1.74h0.04c0.76-1.24,1.95-1.97,3.61-1.97c2.46,0,4.3,2.08,4.3,5.17
		c0,3.65-2.23,5.46-4.62,5.46c-1.34,0-2.52-0.59-3.13-1.6h-0.04v5.52h-1.83V17.4z M36.54,20.11c0,0.27,0.04,0.52,0.08,0.76
		c0.34,1.28,1.45,2.16,2.77,2.16c1.95,0,3.09-1.6,3.09-3.93c0-2.04-1.07-3.78-3.02-3.78c-1.26,0-2.44,0.9-2.79,2.29
		c-0.06,0.23-0.13,0.5-0.13,0.76V20.11z"/>
	<path d="M47.69,19.5c0.04,2.5,1.64,3.53,3.49,3.53c1.32,0,2.12-0.23,2.81-0.52l0.31,1.32c-0.65,0.29-1.76,0.63-3.38,0.63
		c-3.13,0-5-2.06-5-5.12s1.81-5.48,4.77-5.48c3.32,0,4.2,2.92,4.2,4.79c0,0.38-0.04,0.67-0.06,0.86H47.69z M53.11,18.18
		c0.02-1.18-0.48-3-2.56-3c-1.87,0-2.69,1.72-2.83,3H53.11z"/>
	<path d="M61.7,10.29c1.11-0.17,2.44-0.29,3.88-0.29c2.62,0,4.49,0.61,5.73,1.76c1.26,1.15,1.99,2.79,1.99,5.08
		c0,2.31-0.71,4.2-2.04,5.5c-1.32,1.32-3.51,2.04-6.26,2.04c-1.3,0-2.39-0.06-3.32-0.17V10.29z M63.53,22.8
		c0.46,0.08,1.13,0.1,1.85,0.1c3.9,0,6.03-2.18,6.03-6c0.02-3.34-1.87-5.46-5.73-5.46c-0.94,0-1.66,0.08-2.14,0.19V22.8z"/>
	<path d="M77.68,11.23c0.02,0.63-0.44,1.13-1.18,1.13c-0.65,0-1.11-0.5-1.11-1.13c0-0.65,0.48-1.15,1.16-1.15
		C77.24,10.08,77.68,10.58,77.68,11.23z M75.62,24.25V14.09h1.85v10.16H75.62z"/>
	<path d="M81.56,19.5c0.04,2.5,1.64,3.53,3.49,3.53c1.32,0,2.12-0.23,2.81-0.52l0.32,1.32c-0.65,0.29-1.76,0.63-3.38,0.63
		c-3.13,0-5-2.06-5-5.12s1.81-5.48,4.77-5.48c3.32,0,4.2,2.92,4.2,4.79c0,0.38-0.04,0.67-0.06,0.86H81.56z M86.98,18.18
		c0.02-1.18-0.48-3-2.56-3c-1.87,0-2.69,1.72-2.83,3H86.98z"/>
	<path d="M91.05,16.84c0-1.05-0.02-1.91-0.08-2.75h1.62l0.08,1.64h0.06c0.57-0.97,1.51-1.87,3.19-1.87c1.39,0,2.44,0.84,2.88,2.04
		h0.04c0.32-0.57,0.71-1.01,1.13-1.32c0.61-0.46,1.28-0.71,2.25-0.71c1.34,0,3.34,0.88,3.34,4.41v5.98h-1.81V18.5
		c0-1.95-0.71-3.13-2.21-3.13c-1.05,0-1.87,0.78-2.18,1.68c-0.08,0.25-0.15,0.59-0.15,0.92v6.28h-1.81v-6.09
		c0-1.62-0.71-2.79-2.12-2.79c-1.16,0-2,0.92-2.29,1.85c-0.11,0.27-0.15,0.59-0.15,0.9v6.13h-1.81V16.84z"/>
</g>
</svg>
